<?xml version="1.0" encoding="UTF-8" standalone="yes"?><svg xmlns="http://www.w3.org/2000/svg" xmlns:xlink="http://www.w3.org/1999/xlink" style="width:336px;height:362px;" version="1.1" viewBox="0 0 336 362"><defs><filter height="300%" id="f1" width="300%" x="-1" y="-1"><feGaussianBlur result="blurOut" stdDeviation="2.0"/><feColorMatrix in="blurOut" result="blurOut2" type="matrix" values="0 0 0 0 0 0 0 0 0 0 0 0 0 0 0 0 0 0 .4 0"/><feOffset dx="4.0" dy="4.0" in="blurOut2" result="blurOut3"/><feBlend in="SourceGraphic" in2="blurOut3" mode="normal"/></filter></defs><g><text fill="#000000" font-family="sans-serif" font-size="18" lengthAdjust="spacingAndGlyphs" textLength="261" x="42.5" y="17.4023">Relationships - Class Diagram</text><rect fill="#F8F8F8" filter="url(#f1)" height="73.9102" style="stroke: #383838; stroke-width: 1.5;" width="132" x="102.5" y="154.1992"/><ellipse cx="140.9" cy="170.1992" fill="#C2C2C2" rx="11" ry="11" style="stroke: #383838; stroke-width: 1.0;"/><path d="M143.8731,175.8423 Q143.2921,176.1411 142.6529,176.2905 Q142.0138,176.4399 141.3082,176.4399 Q138.8014,176.4399 137.4815,174.7881 Q136.1617,173.1362 136.1617,170.0151 Q136.1617,166.8857 137.4815,165.2339 Q138.8014,163.582 141.3082,163.582 Q142.0138,163.582 142.6612,163.7314 Q143.3087,163.8809 143.8731,164.1797 L143.8731,166.9023 Q143.2423,166.3213 142.6488,166.0515 Q142.0553,165.7817 141.4244,165.7817 Q140.0797,165.7817 139.3949,166.8484 Q138.7101,167.915 138.7101,170.0151 Q138.7101,172.1069 139.3949,173.1736 Q140.0797,174.2402 141.4244,174.2402 Q142.0553,174.2402 142.6488,173.9705 Q143.2423,173.7007 143.8731,173.1196 Z "/><text fill="#000000" font-family="sans-serif" font-size="12" lengthAdjust="spacingAndGlyphs" textLength="48" x="160.1" y="174.7344">Dwelling</text><line style="stroke: #383838; stroke-width: 1.5;" x1="103.5" x2="233.5" y1="186.1992" y2="186.1992"/><ellipse cx="113.5" cy="198.1768" fill="none" rx="3" ry="3" style="stroke: #545454; stroke-width: 1.0;"/><text fill="#000000" font-family="sans-serif" font-size="11" lengthAdjust="spacingAndGlyphs" textLength="64" x="122.5" y="200.834">Int Windows</text><line style="stroke: #383838; stroke-width: 1.5;" x1="103.5" x2="233.5" y1="207.1543" y2="207.1543"/><ellipse cx="113.5" cy="219.1318" fill="#A6A6A6" rx="3" ry="3" style="stroke: #545454; stroke-width: 1.0;"/><text fill="#000000" font-family="sans-serif" font-size="11" lengthAdjust="spacingAndGlyphs" textLength="106" x="122.5" y="221.7891">void LockTheDoor()</text><rect fill="#F8F8F8" filter="url(#f1)" height="48" style="stroke: #383838; stroke-width: 1.5;" width="93" x="6" y="305.1992"/><ellipse cx="21" cy="321.1992" fill="#C2C2C2" rx="11" ry="11" style="stroke: #383838; stroke-width: 1.0;"/><path d="M23.9731,326.8423 Q23.3921,327.1411 22.7529,327.2905 Q22.1138,327.4399 21.4082,327.4399 Q18.9014,327.4399 17.5815,325.7881 Q16.2617,324.1362 16.2617,321.0151 Q16.2617,317.8857 17.5815,316.2339 Q18.9014,314.582 21.4082,314.582 Q22.1138,314.582 22.7612,314.7314 Q23.4087,314.8809 23.9731,315.1797 L23.9731,317.9023 Q23.3423,317.3213 22.7488,317.0515 Q22.1553,316.7817 21.5244,316.7817 Q20.1797,316.7817 19.4949,317.8484 Q18.8101,318.915 18.8101,321.0151 Q18.8101,323.1069 19.4949,324.1736 Q20.1797,325.2402 21.5244,325.2402 Q22.1553,325.2402 22.7488,324.9705 Q23.3423,324.7007 23.9731,324.1196 Z "/><text fill="#000000" font-family="sans-serif" font-size="12" lengthAdjust="spacingAndGlyphs" textLength="61" x="35" y="325.7344">Apartment</text><line style="stroke: #383838; stroke-width: 1.5;" x1="7" x2="98" y1="337.1992" y2="337.1992"/><line style="stroke: #383838; stroke-width: 1.5;" x1="7" x2="98" y1="345.1992" y2="345.1992"/><rect fill="#F8F8F8" filter="url(#f1)" height="48" style="stroke: #383838; stroke-width: 1.5;" width="68" x="134.5" y="305.1992"/><ellipse cx="149.5" cy="321.1992" fill="#C2C2C2" rx="11" ry="11" style="stroke: #383838; stroke-width: 1.0;"/><path d="M152.4731,326.8423 Q151.8921,327.1411 151.2529,327.2905 Q150.6138,327.4399 149.9082,327.4399 Q147.4014,327.4399 146.0815,325.7881 Q144.7617,324.1362 144.7617,321.0151 Q144.7617,317.8857 146.0815,316.2339 Q147.4014,314.582 149.9082,314.582 Q150.6138,314.582 151.2612,314.7314 Q151.9087,314.8809 152.4731,315.1797 L152.4731,317.9023 Q151.8423,317.3213 151.2488,317.0515 Q150.6553,316.7817 150.0244,316.7817 Q148.6797,316.7817 147.9949,317.8484 Q147.3101,318.915 147.3101,321.0151 Q147.3101,323.1069 147.9949,324.1736 Q148.6797,325.2402 150.0244,325.2402 Q150.6553,325.2402 151.2488,324.9705 Q151.8423,324.7007 152.4731,324.1196 Z "/><text fill="#000000" font-family="sans-serif" font-size="12" lengthAdjust="spacingAndGlyphs" textLength="36" x="163.5" y="325.7344">House</text><line style="stroke: #383838; stroke-width: 1.5;" x1="135.5" x2="201.5" y1="337.1992" y2="337.1992"/><line style="stroke: #383838; stroke-width: 1.5;" x1="135.5" x2="201.5" y1="345.1992" y2="345.1992"/><rect fill="#F8F8F8" filter="url(#f1)" height="48" style="stroke: #383838; stroke-width: 1.5;" width="90" x="237.5" y="305.1992"/><ellipse cx="252.5" cy="321.1992" fill="#C2C2C2" rx="11" ry="11" style="stroke: #383838; stroke-width: 1.0;"/><path d="M255.4731,326.8423 Q254.8921,327.1411 254.2529,327.2905 Q253.6138,327.4399 252.9082,327.4399 Q250.4014,327.4399 249.0815,325.7881 Q247.7617,324.1362 247.7617,321.0151 Q247.7617,317.8857 249.0815,316.2339 Q250.4014,314.582 252.9082,314.582 Q253.6138,314.582 254.2612,314.7314 Q254.9087,314.8809 255.4731,315.1797 L255.4731,317.9023 Q254.8423,317.3213 254.2488,317.0515 Q253.6553,316.7817 253.0244,316.7817 Q251.6797,316.7817 250.9949,317.8484 Q250.3101,318.915 250.3101,321.0151 Q250.3101,323.1069 250.9949,324.1736 Q251.6797,325.2402 253.0244,325.2402 Q253.6553,325.2402 254.2488,324.9705 Q254.8423,324.7007 255.4731,324.1196 Z "/><text fill="#000000" font-family="sans-serif" font-size="12" lengthAdjust="spacingAndGlyphs" textLength="58" x="266.5" y="325.7344">Commune</text><line style="stroke: #383838; stroke-width: 1.5;" x1="238.5" x2="326.5" y1="337.1992" y2="337.1992"/><line style="stroke: #383838; stroke-width: 1.5;" x1="238.5" x2="326.5" y1="345.1992" y2="345.1992"/><rect fill="#F8F8F8" filter="url(#f1)" height="48" style="stroke: #383838; stroke-width: 1.5;" width="76" x="192.5" y="29.1992"/><ellipse cx="207.5" cy="45.1992" fill="#C2C2C2" rx="11" ry="11" style="stroke: #383838; stroke-width: 1.0;"/><path d="M210.4731,50.8423 Q209.8921,51.1411 209.2529,51.2905 Q208.6138,51.4399 207.9082,51.4399 Q205.4014,51.4399 204.0815,49.7881 Q202.7617,48.1362 202.7617,45.0151 Q202.7617,41.8857 204.0815,40.2339 Q205.4014,38.582 207.9082,38.582 Q208.6138,38.582 209.2612,38.7314 Q209.9087,38.8809 210.4731,39.1797 L210.4731,41.9023 Q209.8423,41.3213 209.2488,41.0515 Q208.6553,40.7817 208.0244,40.7817 Q206.6797,40.7817 205.9949,41.8484 Q205.3101,42.915 205.3101,45.0151 Q205.3101,47.1069 205.9949,48.1736 Q206.6797,49.2402 208.0244,49.2402 Q208.6553,49.2402 209.2488,48.9705 Q209.8423,48.7007 210.4731,48.1196 Z "/><text fill="#000000" font-family="sans-serif" font-size="12" lengthAdjust="spacingAndGlyphs" textLength="44" x="221.5" y="49.7344">Window</text><line style="stroke: #383838; stroke-width: 1.5;" x1="193.5" x2="267.5" y1="61.1992" y2="61.1992"/><line style="stroke: #383838; stroke-width: 1.5;" x1="193.5" x2="267.5" y1="69.1992" y2="69.1992"/><rect fill="#F8F8F8" filter="url(#f1)" height="48" style="stroke: #383838; stroke-width: 1.5;" width="60" x="77.5" y="29.1992"/><ellipse cx="92.5" cy="45.1992" fill="#C2C2C2" rx="11" ry="11" style="stroke: #383838; stroke-width: 1.0;"/><path d="M95.4731,50.8423 Q94.8921,51.1411 94.2529,51.2905 Q93.6138,51.4399 92.9082,51.4399 Q90.4014,51.4399 89.0815,49.7881 Q87.7617,48.1362 87.7617,45.0151 Q87.7617,41.8857 89.0815,40.2339 Q90.4014,38.582 92.9082,38.582 Q93.6138,38.582 94.2612,38.7314 Q94.9087,38.8809 95.4731,39.1797 L95.4731,41.9023 Q94.8423,41.3213 94.2488,41.0515 Q93.6553,40.7817 93.0244,40.7817 Q91.6797,40.7817 90.9949,41.8484 Q90.3101,42.915 90.3101,45.0151 Q90.3101,47.1069 90.9949,48.1736 Q91.6797,49.2402 93.0244,49.2402 Q93.6553,49.2402 94.2488,48.9705 Q94.8423,48.7007 95.4731,48.1196 Z "/><text fill="#000000" font-family="sans-serif" font-size="12" lengthAdjust="spacingAndGlyphs" textLength="28" x="106.5" y="49.7344">Door</text><line style="stroke: #383838; stroke-width: 1.5;" x1="78.5" x2="136.5" y1="61.1992" y2="61.1992"/><line style="stroke: #383838; stroke-width: 1.5;" x1="78.5" x2="136.5" y1="69.1992" y2="69.1992"/><path d="M102.176,242.0942 C96.9257,247.2552 91.9441,252.6512 87.5,258.1992 C76.2023,272.3032 67.1967,290.6462 61.1509,305.0167 " fill="none" style="stroke: #383838; stroke-width: 1.0;"/><polygon fill="none" points="97.9403,236.4862,117.461,228.2442,107.341,246.8612,97.9403,236.4862" style="stroke: #383838; stroke-width: 1.0;"/><text fill="#000000" font-family="sans-serif" font-size="13" lengthAdjust="spacingAndGlyphs" textLength="70" x="88.5" y="271.7676">Inheritance</text><path d="M229.194,242.2512 C234.266,247.4172 239.121,252.7692 243.5,258.1992 C255.029,272.4928 265.037,290.6569 272.028,304.8999 " fill="none" style="stroke: #383838; stroke-width: 1.0;"/><polygon fill="none" points="224.183,247.1452,214.536,228.2782,233.843,237.0112,224.183,247.1452" style="stroke: #383838; stroke-width: 1.0;"/><text fill="#000000" font-family="sans-serif" font-size="13" lengthAdjust="spacingAndGlyphs" textLength="70" x="256.5" y="271.7676">Inheritance</text><path d="M167.494,248.6212 C167.43,257.515 167.419,266.6072 167.5,275.1992 C167.592,284.954 167.779,295.7173 167.967,304.9816 " fill="none" style="stroke: #383838; stroke-width: 1.0;"/><polygon fill="none" points="160.495,248.4792,167.724,228.5602,174.495,248.6392,160.495,248.4792" style="stroke: #383838; stroke-width: 1.0;"/><text fill="#000000" font-family="sans-serif" font-size="13" lengthAdjust="spacingAndGlyphs" textLength="70" x="168.5" y="271.7676">Inheritance</text><path d="M219.983,77.2702 C211.879,95.0462 200.395,120.2362 190.329,142.3172 " fill="none" style="stroke: #383838; stroke-width: 1.0;"/><polygon fill="#383838" points="184.913,154.1972,191.0412,150.3966,189.89,143.278,183.7617,147.0786,184.913,154.1972" style="stroke: #383838; stroke-width: 1.0;"/><text fill="#000000" font-family="sans-serif" font-size="13" lengthAdjust="spacingAndGlyphs" textLength="81" x="206.5" y="120.7676">Composition</text><text fill="#000000" font-family="sans-serif" font-size="13" lengthAdjust="spacingAndGlyphs" textLength="34" x="179.2757" y="97.5719">many</text><text fill="#000000" font-family="sans-serif" font-size="13" lengthAdjust="spacingAndGlyphs" textLength="8" x="179.2792" y="143.3205">1</text><path d="M101.7722,77.4062 C99.4413,91.4472 98.5154,109.4312 104.5,124.1992 C107.272,131.0412 111.132,137.5642 115.595,143.6622 " fill="none" style="stroke: #383838; stroke-width: 1.0;"/><polygon fill="#383838" points="124.177,154.1532,123.4737,146.9765,116.5785,144.8654,117.2818,152.0422,124.177,154.1532" style="stroke: #383838; stroke-width: 1.0;"/><text fill="#000000" font-family="sans-serif" font-size="13" lengthAdjust="spacingAndGlyphs" textLength="81" x="105.5" y="120.7676">Composition</text><text fill="#000000" font-family="sans-serif" font-size="13" lengthAdjust="spacingAndGlyphs" textLength="34" x="62.2323" y="97.741">many</text><text fill="#000000" font-family="sans-serif" font-size="13" lengthAdjust="spacingAndGlyphs" textLength="8" x="107.2674" y="143.5453">1</text></g></svg>